<svg xmlns="http://www.w3.org/2000/svg" fill="none" viewBox="0 0 200 200" height="200" width="200">
<path fill="#787878" d="M135.655 90.0503C124.606 92.5319 110.828 91.1853 101.367 99.8946C103.104 92.927 104.698 86.5268 103.266 79.4882C116.893 72.3833 129.992 63.2636 134.696 48.5466C137.088 41.0645 136.707 32.5242 132.713 25.7606C124.995 12.6916 106.421 11.0841 99.9863 24.3706C98.6707 26.0453 97.6529 27.7924 97.0268 29.6107C93.5454 25.4156 87.9115 22.3771 83.0627 22.8673C76.5582 23.4955 68.5101 27.8948 65.1972 36.3055C61.9889 44.448 65.164 54.5489 69.9578 60.3169C74.3927 65.6521 77.7708 67.5859 83.3972 71.0076C87.5114 73.5543 93.5757 76.5365 98.8383 78.1011C100.71 83.4593 99.7911 89.5225 98.5177 94.9943C97.441 92.0473 95.6886 89.3896 93.8824 87.4434C86.2206 79.1965 74.6102 77.2207 65.4793 72.5881C63.9447 71.8055 62.2136 73.2583 62.7153 74.9066C66.7226 88.1096 67.9016 93.0328 70.9281 97.4907C73.8452 101.785 78.3889 105.028 83.3934 106.386C86.7842 107.312 92.5694 107.661 95.9385 106.343C95.7801 107.438 95.6214 108.313 95.498 110.159C95.4615 110.425 95.3082 110.781 95.4277 111.687C81.3984 112.351 65.9134 115.488 65.9134 122.416C65.9134 123.696 66.4843 124.847 67.4586 125.892C74.4191 177.875 73.9441 174.694 74.3096 175.261C74.3532 175.716 74.5337 176.16 74.8908 176.498C80.9964 182.289 88.2617 183.469 96.6285 184.186C101.584 184.616 106.863 184.471 111.845 183.734C117.188 182.943 122.895 180.379 126.736 177.042C127.018 176.797 127.18 176.482 127.285 176.15C128.168 174.767 128.491 173.26 128.839 171.55C132.042 155.828 134.687 139.986 136.49 124.044C138.593 118.642 131.051 115.471 125.446 114.005C131.825 108.799 135.56 101.072 137.642 93.1776L137.764 92.9764C138.17 92.3023 138.135 91.4546 137.676 90.8163C137.216 90.178 136.418 89.8716 135.655 90.0503ZM106.603 100.769C113.905 96.0445 123.478 96.0029 132.153 94.6846C127.604 102.222 125.136 106.822 121.65 109.92C118.459 112.754 114.184 114.419 109.92 114.491C107.287 114.519 100.147 113.274 99.3676 111.318C99.5431 107.115 103.13 103.015 106.603 100.769ZM72.9733 57.8095C68.3199 52.2101 66.5453 43.5824 68.8458 37.743C71.4766 31.0664 78.7132 26.7382 84.0904 26.7382C88.9493 26.7382 95.5892 31.7814 96.3783 36.9898C96.7714 39.5249 100.682 39.0897 100.222 36.1676C99.0315 27.4293 109.238 17.7134 119.32 21.412C125.761 23.7789 130.335 31.6993 129.961 39.8342C129.626 47.0652 125.947 54.4723 119.602 60.6897C113.996 66.1846 108.291 69.6529 101.207 74.6921C96.0745 73.3975 89.6937 70.2927 85.4629 67.673C80.0631 64.3899 77.0287 62.6891 72.9733 57.8095ZM95.5549 101.859C95.2553 103.707 87.7897 103.519 84.4211 102.602C80.3064 101.487 76.5709 98.8209 74.1733 95.2897C71.559 91.4358 70.3754 86.6384 67.7364 77.9425C75.8579 81.3667 85.0883 83.7413 91.0074 90.1141C93.5199 92.8181 96.2174 97.5188 95.5549 101.859ZM111.271 179.853C106.645 180.535 101.696 180.683 96.963 180.28C89.6861 179.655 83.2276 178.76 77.8793 173.894C76.896 166.549 75.9169 159.292 74.9374 152.041C87.131 156.634 101.009 158.24 114.601 155.992C115.67 155.814 116.393 154.805 116.215 153.735C116.039 152.665 115.02 151.95 113.96 152.121C100.751 154.318 86.7181 152.684 74.3352 147.579C73.4924 141.336 72.6485 135.077 71.8024 128.775C85.1164 134.823 117.504 134.824 130.867 128.81C128.346 144.75 126.084 158.709 123.586 174.539C120.327 177.151 115.591 179.214 111.271 179.853ZM132.91 122.416C132.91 124.786 121.779 129.397 101.373 129.397C80.9665 129.397 69.8353 124.786 69.8353 122.416C69.8353 120.391 78.6873 116.406 95.5895 115.611C95.8266 117.961 96.3911 120.358 97.4496 122.573C97.0817 122.193 96.7899 121.646 96.6081 121.214C96.1855 120.218 95.0378 119.748 94.0395 120.169C93.0411 120.591 92.5739 121.742 92.9952 122.74C94.7544 126.916 97.9961 127.551 100.07 126.397C100.798 125.997 101.303 125.411 101.613 125.128C105.213 127.432 109.639 124.539 107.73 122.171C107.049 121.328 105.817 121.196 104.973 121.875C104.053 122.615 103.37 121.076 101.513 121.096C101.367 121.097 101.251 121.14 101.116 121.158C100.422 119.799 99.9678 118.322 99.7002 116.808C103.697 119.093 110.127 119.332 113.688 119.002C116.223 118.767 118.601 118.057 120.812 116.986C129.56 118.63 132.91 121.119 132.91 122.416Z"></path>
</svg>
