<svg xmlns="http://www.w3.org/2000/svg" fill="none" viewBox="0 0 200 200" height="200" width="200">
<path fill="#787878" d="M152.974 77.4792C156.03 75.4009 157.089 71.0781 155.436 67.8513C152.298 61.7226 142.23 61.7382 141.134 69.1605C140.769 71.6264 141.214 74.3004 142.851 76.2318C145.216 79.0205 149.918 79.5577 152.974 77.4792Z"></path>
<path fill="#787878" d="M141.86 101.564C147.061 101.826 150.958 99.7525 155.431 97.2939C162.285 93.5281 172.286 86.4315 176.171 79.741C178.28 76.1076 179.047 72.1671 178.331 68.6426C177.574 64.9126 175.281 61.9033 173.258 59.2482C172.527 58.2882 171.775 57.3015 171.023 56.3159C173.376 52.5308 174.018 46.6795 173.749 42.5226C173.552 39.4963 172.988 37.204 172.176 35.3262C171.944 34.1098 171.645 32.9471 171.197 31.9418C168.273 25.3932 161.733 20.836 154.924 20.5982C153.045 20.497 147.744 21.331 144.818 23.5333C141.107 22.3869 135.216 24.9028 131.71 26.6013C128.533 23.4289 124.202 20.5674 119.722 19.2607C115.891 18.1412 113.109 17.5394 109.465 19.2484C105.082 21.3115 102.887 25.3387 103.446 30.2972C103.942 34.6984 108.299 38.8176 110.399 42.3088C107.473 45.6723 104.947 49.3554 102.928 53.304C101.091 56.8996 100.612 60.9686 103.946 63.053C104.208 63.3393 103.096 62.2132 106.254 65.5392C112.942 72.5999 109.084 69.1113 115.236 75.3729C109.474 75.4233 108.29 75.2736 99.5756 75.4154C98.2169 73.0629 95.5465 70.329 90.5076 69.7826C89.8549 69.3691 89.2353 69.2843 88.8067 69.3064C84.0352 69.5912 84.6111 81.1181 84.6371 81.6085C84.8662 85.782 86.1606 94.0332 90.3035 93.4642C90.5574 93.5174 90.5904 93.5597 90.9231 93.5193C94.1872 93.1059 97.1085 91.3463 98.8678 88.8811C114.995 90.2669 116.362 92.0591 130.368 92.4766C135.116 98.4292 137.87 101.362 141.86 101.564ZM167.722 33.4923C169.611 37.724 168.86 45.6464 166.417 50.2825C164.896 48.2921 149.567 28.2916 147.943 26.3819C147.907 26.2923 147.864 26.2036 147.823 26.1147C149.792 25.0488 153.243 24.324 154.789 24.4C160.096 24.5833 165.415 28.3233 167.722 33.4923ZM143.54 27.1022C145.312 27.5036 144.377 29.8106 143.501 31.4093C142.35 33.5084 141.026 35.5028 139.627 37.4444C138.058 34.6356 136.275 31.9324 134.368 29.5705C136.583 28.5403 141.164 26.5532 143.54 27.1022ZM107.225 29.8712C106.964 27.548 107.421 24.4149 111.084 22.6911C113.463 21.574 115.134 21.8836 118.656 22.9115C122.114 23.9191 125.498 26.0601 128.146 28.453C121.152 32.3099 116.89 35.6202 113.062 39.4463C110.764 36.0122 107.532 32.589 107.225 29.8712ZM106.316 55.0377C112.003 43.9099 120.378 36.9201 130.885 31.3053C133.184 34.0225 135.33 37.3534 137.117 40.765C129.965 49.3704 120.427 56.0043 109.81 59.5603C107.781 60.2365 106.376 60.2786 105.747 59.6767C104.852 58.8247 105.454 56.7219 106.316 55.0377ZM123.469 78.9955C125.875 78.9161 125.985 75.2714 123.348 75.1912C122.244 75.2268 121.271 75.2542 120.352 75.2784C118.492 73.1436 115.577 70.4204 114.239 68.7788C113.112 67.4718 113.605 67.7735 109.632 63.5736C110.207 63.4299 110.7 63.2724 111.017 63.1665C121.763 59.5682 131.428 52.9695 138.896 44.4548C140.373 47.8099 141.408 51.0292 141.803 53.6077C141.299 53.5815 140.788 53.7456 140.394 54.1213C138.156 56.2504 142.516 59.6069 146.031 57.7201C147.886 56.7219 148.887 54.5052 148.41 52.452C148.104 51.1314 146.449 50.4181 145.279 51.5157C144.612 48.4518 143.307 44.8382 141.566 41.1878C143.503 38.6613 145.305 36.0307 146.838 33.2372C146.997 32.9455 147.24 32.5 147.485 31.9523C154.985 41.5727 163.121 52.2193 170.232 61.5516C172.008 63.8823 174.019 66.525 174.603 69.4005C175.133 72.011 174.522 75.0055 172.882 77.829C169.378 83.8658 159.714 90.6 153.598 93.9602C149.676 96.115 146.279 97.9924 142.052 97.7645C139.565 97.6384 137.404 95.2424 132.493 89.0388C133.196 87.2255 133.489 85.2611 133.308 83.3249C133.21 82.2773 132.256 81.5342 131.239 81.6061C130.192 81.7051 129.423 82.6314 129.521 83.6766C129.633 84.8909 129.436 86.1098 129.048 87.2655C115.94 86.9714 115.974 85.4835 100.663 84.4559C100.967 82.8017 101.021 80.9461 100.78 79.2022C111.866 79.0476 111.377 79.3777 123.469 78.9955ZM89.0767 74.0469C90.6271 77.7443 91.0554 84.5646 89.8346 88.702C88.3352 84.9552 87.8758 78.0706 89.0767 74.0469ZM93.8109 88.4935C94.6503 84.4628 94.5292 78.9357 93.2178 74.4473C94.5322 75.1087 95.5962 76.0794 96.346 77.4203C97.4965 79.476 97.3219 83.4413 96.398 85.611C95.9078 86.7622 94.9695 87.7514 93.8109 88.4935Z"></path>
<path fill="#787878" d="M76.0725 80.1573C77.1227 80.1201 77.9412 79.2359 77.9029 78.1883C77.8632 77.1356 76.9654 76.1969 75.9313 76.3579C74.5642 76.4075 73.2701 76.4842 72.0416 76.5883C70.9951 76.675 70.2187 77.5963 70.3066 78.644C70.3908 79.6347 71.223 80.3852 72.2001 80.3852C72.7488 80.3852 73.1131 80.2696 76.0725 80.1573Z"></path>
<path fill="#787878" d="M65.6378 79.3866C65.353 78.3761 64.3115 77.7817 63.2911 78.0715C60.2991 78.9136 57.5982 80.1198 55.0323 81.7594C53.4311 82.7806 54.1663 85.264 56.0577 85.264C57.4591 85.264 58.4643 83.3822 64.3239 81.7322C65.3344 81.4473 65.9239 80.3972 65.6378 79.3866Z"></path>
<path fill="#787878" d="M50.7657 90.1062C51.5223 89.3756 51.5434 88.1719 50.8152 87.4165C50.0846 86.6635 48.8821 86.6388 48.1254 87.3669C47.2363 88.2239 46.3285 89.1453 45.3923 90.1285C44.2303 91.3482 45.1185 93.3434 46.7694 93.3434C47.91 93.3434 47.9642 92.8101 50.7657 90.1062Z"></path>
<path fill="#787878" d="M62.4085 89.3068C60.3825 91.2932 58.7813 93.5644 57.6494 96.061C57.0743 97.3295 58.0161 98.7483 59.3807 98.7483C61.6223 98.7483 60.7054 96.3069 65.0711 92.0213C65.8215 91.2857 65.8339 90.082 65.0983 89.3316C64.3627 88.5861 63.159 88.5712 62.4085 89.3068Z"></path>
<path fill="#787878" d="M70.7758 87.9764C72.8662 86.9114 75.1188 86.1139 77.4693 85.6062C78.4959 85.3833 79.1486 84.3703 78.9256 83.3424C78.7027 82.3195 77.691 81.6805 76.6644 81.8861C73.9932 82.4656 71.4322 83.3746 69.052 84.5833C66.8249 85.7204 68.5203 89.1093 70.7758 87.9764Z"></path>
<path fill="#787878" d="M71.6693 95.0119C71.1151 96.2694 72.0388 97.6818 73.4092 97.6818C75.8129 97.6818 74.853 94.6132 79.2247 91.4478C80.0755 90.8311 80.2662 89.6422 79.6495 88.7927C79.034 87.9382 77.8439 87.745 76.9931 88.3667C74.6934 90.0311 72.852 92.3295 71.6693 95.0119Z"></path>
<path fill="#787878" d="M117.227 181.247C118.191 180.906 118.968 180.227 118.853 179.507C118.473 177.131 109.214 177.257 106.802 177.28C106.983 176.642 106.971 175.952 106.726 175.319C104.244 168.892 97.7404 164.984 90.7445 165.949C90.2083 159.952 84.4278 155.426 77.1834 157.256C78.9232 150.71 81.8715 143.406 84.2502 138.991C85.359 138.11 87.5075 139.448 89.1946 139.541C99.2704 140.191 110 132.855 113.225 114.921C114.402 111.076 115.281 107.06 115.703 103.197C115.807 102.242 115.168 101.405 114.259 101.179C113.347 100.797 112.991 101.157 111.608 101.33C106.85 102.212 101.93 103.121 97.2634 105.018C91.3265 107.43 86.6256 111.026 83.6721 115.415C82.3036 117.448 81.4024 120.071 80.9584 122.824C79.7235 126.714 79.8705 130.693 81.1882 134.32C81.3067 134.646 81.5049 135.189 81.7959 135.603C79.0219 140.291 76.3563 147.076 74.7247 152.158C74.1718 150.625 73.4906 149.302 73.2746 148.951L73.2758 148.948C71.8808 146.583 69.6526 143.866 67.8172 141.817C68.1155 140.637 68.2226 139.257 68.2908 138.592C68.8935 132.709 67.2207 126.583 62.9059 122.021C58.6562 115.492 50.2607 111.874 42.487 110.566C36.221 109.512 29.802 109.851 23.3329 110.09C22.9577 110.104 22.6328 110.252 22.3447 110.45C21.4688 110.846 20.9978 111.822 21.3069 112.755C22.4086 116.087 23.8561 119.453 25.502 122.706C33.8908 146.191 50.6473 152.348 62.9573 146.724C63.441 146.506 64.4082 145.708 64.9161 145.684C65.6173 145.635 65.5449 145.853 66.0768 146.506C68.6448 149.651 70.4518 151.647 71.7565 155.567C72.0823 157.197 72.0642 158.119 72.0139 159.78C70.3767 161.002 68.4124 163.341 67.0703 166.256C63.4777 164.785 59.2573 164.901 55.7873 166.67C53.7626 167.693 49.505 171.437 48.5911 174.949C48.1143 176.78 48.6294 178.073 49.1496 178.845C50.5844 180.947 54.3401 181.221 59.2127 181.117C79.8511 183.229 114.262 182.296 117.227 181.247ZM86.8275 117.54C89.3575 113.781 93.4615 110.67 98.6962 108.542C102.785 106.88 107.069 106.045 111.582 105.208C110.373 113.013 107.466 121.152 103.885 126.504C100.48 131.595 93.9423 136.012 87.1813 134.373C87.577 133.881 87.8919 133.558 88.1228 133.357C88.9142 132.669 88.9984 131.467 88.3073 130.675C87.62 129.88 86.4176 129.798 85.6238 130.489C85.4253 130.662 85.2222 130.869 85.0183 131.081C83.8736 126.885 84.5725 120.891 86.8275 117.54ZM41.8567 114.316C48.4313 115.423 53.9458 117.964 57.8046 121.659C61.4644 125.169 63.7809 132.254 63.2371 137.549C62.7912 137.234 62.3565 136.948 61.9471 136.728C61.0282 136.238 59.869 136.582 59.3712 137.503C58.8734 138.429 59.2214 139.584 60.1464 140.079C60.6587 140.354 61.2509 140.774 61.8938 141.302C54.3141 145.377 45.3298 141.939 39.9929 136.792C34.4628 131.461 29.0323 122.632 25.7393 113.813C31.3114 113.606 36.5861 113.434 41.8567 114.316ZM57.5099 170.06C60.4808 168.547 64.222 168.72 67.0418 170.506C68.0789 171.161 69.4598 170.682 69.8591 169.515C70.9291 166.392 72.6415 163.962 75.2015 162.14L75.1933 162.126C75.2094 162.111 75.2221 162.095 75.2376 162.08C75.3027 162.05 75.3625 162.012 75.4238 161.976L75.4405 161.996C76.0129 161.656 76.171 161.633 76.4486 161.402C76.9358 161.328 80.2255 159.713 83.5049 161.325C85.9878 162.528 87.4776 165.478 86.8262 167.896C86.429 169.367 87.8441 170.685 89.2795 170.189C94.4353 168.428 100.229 170.674 102.762 175.752L98.9674 176.01C63.1127 178.44 70.1472 176.963 60.9155 177.265C59.022 177.327 53.2647 177.51 52.2975 176.708C51.4593 175.438 55.4984 171.077 57.5099 170.06Z"></path>
</svg>
