<svg xmlns="http://www.w3.org/2000/svg" fill="none" viewBox="0 0 200 200" height="200" width="200">
<path fill="#787878" d="M135.309 32.7089C136.297 32.7089 137.124 31.9334 137.175 30.9351L137.629 22.0772C137.682 21.046 136.889 20.167 135.857 20.1147C134.853 20.0757 133.947 20.8561 133.894 21.8872L133.44 30.7428C133.385 31.8112 134.237 32.7089 135.309 32.7089Z"></path>
<path fill="#787878" d="M145.831 34.9038C148.64 30.8132 150.894 26.3648 152.535 21.6813C152.876 20.7062 152.363 19.6397 151.389 19.2976C150.411 18.9592 149.346 19.4717 149.005 20.4444C147.475 24.8162 145.368 28.9688 142.749 32.7879C142.164 33.6389 142.38 34.8027 143.232 35.3871C144.073 35.968 145.244 35.7618 145.831 34.9038Z"></path>
<path fill="#787878" d="M101.041 100.944C104.257 103.24 107.863 104.766 111.35 106.241C111.859 106.457 112.451 106.438 112.959 106.168C118.306 103.312 122.769 99.7547 126.601 95.2928C138.851 81.0318 121.828 70.5302 112.877 80.0677C112.488 80.4842 111.885 80.3068 111.542 79.8936C107.504 75.0311 100.54 75.124 96.4754 78.9805C91.1546 84.0327 91.5241 94.1452 101.041 100.944ZM99.0514 81.6917C101.554 79.3132 105.999 79.0686 108.664 82.2822C110.512 84.5075 113.736 84.6139 115.604 82.6267C117.016 81.1232 118.894 80.1992 120.759 80.0933C123.72 79.9143 126.842 82.3102 127.181 85.1091C127.452 87.3296 126.333 89.8643 123.764 92.8555C120.426 96.7416 116.563 99.8849 111.976 102.444C108.939 101.155 105.853 99.7851 103.214 97.9005C95.7162 92.5469 95.3834 85.1762 99.0514 81.6917Z"></path>
<path fill="#787878" d="M79.4806 77.6169C80.513 77.6169 81.3506 76.7793 81.3506 75.7469C81.3506 74.7145 80.513 73.877 79.4806 73.877H62.7362C61.7038 73.877 60.8662 74.7145 60.8662 75.7469C60.8662 76.7793 61.7038 77.6169 62.7362 77.6169H79.4806Z"></path>
<path fill="#787878" d="M64.6102 83.0742C63.5778 83.0742 62.7402 83.9118 62.7402 84.9442C62.7402 85.9766 63.5778 86.8141 64.6102 86.8141H68.7847C69.8171 86.8141 70.6547 85.9766 70.6547 84.9442C70.6547 83.9118 69.8171 83.0742 68.7847 83.0742H64.6102Z"></path>
<path fill="#787878" d="M78.4158 92.9461C78.4158 91.9138 77.5782 91.0762 76.5459 91.0762H64.4422C63.4099 91.0762 62.5723 91.9138 62.5723 92.9461C62.5723 93.9785 63.4099 94.8161 64.4422 94.8161H76.5459C77.5782 94.8161 78.4158 93.9785 78.4158 92.9461Z"></path>
<path fill="#787878" d="M149.7 42.9608C152.807 41.6338 155.606 39.7626 158.02 37.3996C158.759 36.6764 158.771 35.4931 158.05 34.7553C157.325 34.0139 156.141 34.003 155.405 34.7261C153.323 36.7641 150.909 38.3772 148.232 39.5203C146.89 40.0951 146.853 41.5532 147.528 42.4318C147.986 43.029 148.772 43.3585 149.7 42.9608Z"></path>
<path fill="#787878" d="M26.4754 126.076C27.017 128.813 28.5145 131.167 30.1062 133.385C49.6286 160.586 87.0428 175.102 129.115 165.453C128.745 168.61 128.296 171.865 127.904 175.048C127.735 176.423 128.886 177.664 130.564 177.982C135.619 178.94 140.443 179.943 145.588 180.576C148.854 180.978 150.755 179.108 152.691 178.239C152.871 178.265 153.278 178.323 153.46 178.323C155.76 178.323 156.01 174.937 153.729 174.603C147.383 173.672 141.115 173.036 134.782 172.149C134.197 159.917 137.076 147.501 143.146 136.143C143.975 134.587 146.334 133.755 148.523 134.26C157.395 136.281 155.768 136.664 163.356 138.374C165.333 138.819 168.857 139.614 169.992 140.328C165.928 151.705 165.476 159.728 162.368 167.592C161.989 168.552 162.46 169.639 163.42 170.019C164.379 170.394 165.467 169.927 165.846 168.967C168.864 161.333 169.825 151.736 173.682 141.118C175.182 136.99 168.455 135.69 164.179 134.725C156.682 133.033 158.537 132.706 149.353 130.612C145.487 129.736 141.485 131.315 139.847 134.38C139.259 135.48 138.735 136.6 138.205 137.718C132.668 135.606 127.004 131.597 121.72 129.238C116.065 126.803 110.242 126.839 105.955 124.517C103.974 123.36 103.33 122.687 101.749 121.017C112.366 121.077 124.379 120.876 135.016 119.625C137.43 119.625 139.394 117.674 139.391 115.361C140.74 85.9123 140.739 62.1932 139.394 42.9774C139.394 40.5644 137.432 38.602 135.118 38.602C135.117 38.602 135.114 38.602 135.113 38.602C109.371 37.2567 82.8358 37.2543 56.341 38.5995C55.269 38.5995 54.2985 39.0014 53.537 39.6333L52.7744 39.9723C50.0457 42.0712 48.3355 46.6697 48.3176 50.1122C48.4278 115.239 47.271 113.42 49.0253 115.283C50.7574 117.122 53.2842 118.698 54.9886 119.257C54.9854 119.22 54.9834 119.182 54.9802 119.145C56.1914 119.549 75.8276 120.352 76.3917 120.375C85.544 132.586 89.0637 137.471 94.8818 142.229C87.9064 141.54 70.5896 135.523 70.8722 135.617C50.6651 126.892 52.7783 127.188 40.0409 118.075C38.0775 116.92 34.1269 112.236 29.7646 114.624C27.8123 115.697 26.7744 117.489 27.0872 120.01C26.1064 121.869 26.1396 124.378 26.4754 126.076ZM102.747 41.4188L102.48 61.5901L93.7817 53.9013C93.0585 53.2622 91.9665 53.2792 91.2604 53.9415L84.1957 60.6008V41.4822C90.3995 41.3879 96.5824 41.3643 102.747 41.4188ZM56.3532 115.641C56.0013 115.633 55.7043 115.341 55.6994 114.861C54.0997 93.7525 54.0997 67.5961 55.7043 42.9774C55.7043 42.6316 55.9965 42.3394 56.436 42.337C64.4563 41.9307 72.463 41.6896 80.4557 41.5297V64.9336C80.4557 66.5621 82.4088 67.4223 83.6089 66.2947L92.5837 57.8336C103.189 66.9272 102.87 67.4395 104.157 67.536C104.977 67.5979 105.948 67.0218 106.111 65.9771C106.21 65.3562 106.334 51.8014 106.487 41.4669C116.061 41.5985 125.595 41.8476 135.016 42.3394C135.343 42.3394 135.654 42.6499 135.659 43.1076C136.998 62.3089 136.998 85.8867 135.654 115.275C135.654 115.6 135.356 115.885 134.8 115.897C125.366 116.995 113.45 117.44 98.4187 117.255C94.0359 112.117 89.0693 107.764 82.2247 107.764C77.0681 107.865 73.4526 111.153 74.3893 116.547C68.8126 116.308 62.9066 116.013 56.3532 115.641ZM31.5615 117.904C33.3842 116.906 36.1975 120.178 37.9956 121.202C42.4179 124.394 54.2119 134.128 69.6937 139.167C77.0406 141.637 95.5897 148.499 100.918 144.985C102.365 144.031 101.87 141.752 100.053 141.591C98.9706 140.2 94.9887 139.167 84.931 125.43C79.1089 117.51 77.7407 116.715 77.9612 114.572C78.0901 112.443 80.1107 111.546 82.2588 111.504C90.4863 111.504 95.1165 119.83 100.048 124.652C106.373 130.978 113.178 129.625 120.218 132.664C125.205 134.889 130.831 138.862 136.688 141.14C134.259 146.971 132.561 152.991 131.69 159.081C131.596 159.102 131.501 159.115 131.413 159.15C99.614 160.639 73.8086 161.281 48.9804 141.065C40.8496 134.539 36.5326 128.571 35.0032 126.879C33.1894 124.619 29.0294 119.297 31.5615 117.904Z"></path>
<path fill="#787878" d="M148.174 137.536C145.774 136.685 142.705 141.177 145.698 143.835C146.795 144.809 148.269 145.109 149.619 144.886C155.457 143.918 153.583 136.309 148.174 137.536Z"></path>
</svg>
