<svg xmlns="http://www.w3.org/2000/svg" fill="none" viewBox="0 0 200 200" height="200" width="200">
<path fill="#787878" d="M188.838 98.9319C189.028 97.7227 188.283 96.8174 187.311 96.5736C186.415 96.347 178.005 92.5717 175.966 91.8614C178.822 88.1807 181.646 84.5727 184.357 81.2037C185.386 79.9274 184.615 77.994 182.962 77.7973C182.907 77.791 170.74 76.0152 167.201 75.5718C169.968 72.2729 172.736 68.9899 175.489 65.7353C176.816 64.1676 175.322 61.8046 173.322 62.3508C124.049 76.338 125.282 74.905 124.493 76.7012C111.447 62.6745 99.7613 48.6867 86.9911 35.012C86.2792 34.248 85.1154 34.1248 84.257 34.7163C64.4744 48.4021 44.0182 62.5534 26.9808 80.2892C26.3113 80.9874 26.2031 82.0499 26.7193 82.8686C27.167 83.5785 27.6436 84.2773 28.1081 84.9808L18.2841 95.5413C17.3884 96.5063 17.5898 98.0369 18.688 98.7423C21.0704 100.271 23.5301 101.799 26.012 103.323C21.163 107.674 17.1691 113.069 14.4779 119.003C14.0782 119.885 14.2697 121.032 15.3764 121.661C13.9301 123.553 11.5523 126.849 10.606 127.968C9.75806 128.968 9.93317 130.618 11.4828 131.219L11.5067 131.43C11.8007 134.026 13.807 136.088 16.3957 136.439C32.8602 138.673 50.0703 141.05 66.4838 142.371C64.9009 149.225 80.0118 155.107 83.8394 147.557C104.605 153.561 124.669 160.239 145.359 166.316C147.446 166.929 149.693 166.14 150.937 164.356C162.604 147.638 174.842 130.816 186.337 114.129C188.194 111.433 189.581 108.446 190.368 105.269C191.05 102.517 191.067 100.944 188.838 98.9319ZM183.779 99.7199C172.897 119.181 160.519 137.995 146.958 155.682C145.3 157.854 144.963 157.907 142.627 157.273C122.428 151.844 102.775 145.902 82.7715 140.293C82.1978 140.126 81.5831 140.224 81.0765 140.539C79.2391 141.708 76.7035 141.815 74.7689 140.818C70.4446 138.582 73.611 134.588 70.2056 134.225C52.4233 132.286 34.2399 130.101 16.1003 127.719C16.1635 127.634 19.8021 122.761 19.8538 122.668C27.9951 124.254 36.1173 125.676 43.9991 127.02C74.3359 132.204 70.0668 131.892 72.0775 132.105C73.3414 133.227 74.5894 134.333 75.8153 135.416C75.8355 136.52 76.6908 137.436 77.807 137.483C77.9538 137.49 78.1116 137.502 78.2588 137.509C79.1936 137.954 79.6094 137.61 79.8901 137.601C99.1506 138.549 119.434 140.963 137.8 140.627C138.86 140.607 139.684 139.792 139.809 138.769C150.415 125.571 162.317 109.551 173.377 95.1957C173.593 95.4001 183.505 99.6056 183.779 99.7199ZM178.772 81.4557C178.335 82.0053 136.562 136.086 136.312 136.414C121.809 136.57 105.424 135.057 90.51 134.017C103.032 130.095 115.881 127.176 128.851 125.339C129.462 125.254 130.004 124.904 130.334 124.383C140.32 108.593 152.046 93.7629 163.964 79.4376C167.477 79.7754 175.258 80.9269 178.772 81.4557ZM167.879 68.2216C153.683 85.0455 139.318 102.464 127.3 121.314C112.125 123.523 97.1177 127.188 82.6027 132.195C92.2823 120.933 125.475 80.1765 125.671 79.4672C127.003 79.9636 124.757 79.9749 167.879 68.2216ZM85.1538 39.2125C97.1548 52.1476 108.735 65.911 120.865 78.9912C106.423 96.4994 92.7094 114.147 77.7016 131.473C62.1989 117.757 43.4993 100.96 31.1676 82.0143C47.2549 65.5683 66.4583 52.1481 85.1538 39.2125ZM30.5428 88.5394C37.2149 97.9513 45.2361 106.771 53.4911 114.898C41.4952 107.664 32.5643 102.546 23.0842 96.5572L30.5428 88.5394ZM29.244 106.04C29.4101 105.895 29.5207 105.715 29.6299 105.536C40.92 112.368 52.7225 119.11 63.8812 126.286C45.718 122.909 33.9695 121.2 19.4862 118.346C21.9547 113.701 25.2927 109.485 29.244 106.04Z"></path>
<path fill="#787878" d="M74.125 58.5111C79.0553 60.2718 83.0545 64.4805 84.5647 69.4915C85.3434 72.0658 85.6639 75.3286 87.7616 77.887C89.6165 80.1478 92.3292 81.1753 94.3074 82.4024C95.6765 83.2513 97.1935 84.7327 96.9608 86.1182C96.5023 88.856 100.647 89.5665 101.109 86.8137C101.599 83.8948 99.8838 80.9073 96.5213 78.8262C91.5332 75.7363 90.6567 76.5814 89.1731 70.491C88.9924 69.7462 88.8103 69.0014 88.5926 68.2757C86.7046 62.0106 81.7032 56.7531 75.5407 54.5516C74.444 54.1545 73.2419 54.7296 72.8531 55.8249C72.4615 56.9174 73.0311 58.1223 74.125 58.5111Z"></path>
<path fill="#787878" d="M67.2194 89.2738C69.1469 93.8998 68.49 96.0481 76.2584 99.3917C78.833 100.489 80.4551 96.6183 77.9178 95.5253C73.1454 93.4796 72.7775 92.5707 71.7909 89.575C69.0062 81.1494 62.5927 78.2153 54.3249 75.0924C51.7174 74.1154 50.2372 78.0418 52.838 79.0245C55.7844 80.139 58.8321 81.2918 61.4773 82.9703C63.4105 84.1998 65.9762 86.2891 67.2194 89.2738Z"></path>
<path fill="#787878" d="M125.227 88.031C124.806 89.1126 125.34 90.3339 126.421 90.7556C131.869 92.8848 136.528 93.9649 140.833 90.2983C141.217 89.9752 141.582 89.6685 141.868 89.5562C143.236 89.0122 146.009 90.6979 148.753 89.1647C151.185 87.8126 149.135 84.1298 146.708 85.4899C146.302 85.7145 145.478 85.5912 144.603 85.4598C135.704 84.1014 140.477 91.7326 127.952 86.8399C126.873 86.4155 125.65 86.9522 125.227 88.031Z"></path>
<path fill="#787878" d="M122.752 104.441C119.322 105.441 119.702 106.958 112.778 105.703C110.01 105.235 109.31 109.349 112.025 109.843C114.888 110.363 117.684 110.787 120.449 109.895C122.08 109.376 124.651 107.761 125.395 108.535C126.195 109.375 127.526 109.4 128.368 108.6C130.464 106.596 127.275 103.106 122.752 104.441Z"></path>
</svg>
